<svg xmlns="http://www.w3.org/2000/svg" xmlns:xlink="http://www.w3.org/1999/xlink" width="500" zoomAndPan="magnify" viewBox="0 0 375 225" height="300" preserveAspectRatio="xMidYMid meet" version="1.2"><defs><clipPath id="b277af772d"><path d="M 0.0390625 0.921875 L 137 0.921875 L 137 139 L 0.0390625 139 Z M 0.0390625 0.921875 "/></clipPath><clipPath id="624aca4d02"><path d="M 81 0.921875 L 249 0.921875 L 249 103 L 81 103 Z M 81 0.921875 "/></clipPath><clipPath id="0cf723d0c0"><path d="M 198 0.921875 L 336 0.921875 L 336 103 L 198 103 Z M 198 0.921875 "/></clipPath><clipPath id="00f3718551"><path d="M 64 50 L 336.039062 50 L 336.039062 168 L 64 168 Z M 64 50 "/></clipPath><clipPath id="24e8465e24"><rect x="0" width="273" y="0" height="118"/></clipPath><clipPath id="ff690fad0b"><rect x="0" width="337" y="0" height="175"/></clipPath></defs><g id="eef10de366"><g transform="matrix(1,0,0,1,17,25)"><g clip-path="url(#ff690fad0b)"><g clip-rule="nonzero" clip-path="url(#b277af772d)"><path style="fill:none;stroke-width:2;stroke-linecap:butt;stroke-linejoin:miter;stroke:#e12e2e;stroke-opacity:1;stroke-miterlimit:4;" d="M 7.499982 0.999772 L 40.962541 1.000155 " transform="matrix(2.119297,-2.249507,2.249507,2.119297,12.047722,118.400882)"/></g><path style="fill:none;stroke-width:2;stroke-linecap:round;stroke-linejoin:round;stroke:#e12e2e;stroke-opacity:1;stroke-miterlimit:4;" d="M 1.000589 1.000086 C 0.999926 -0.657638 2.343563 -1.999907 4.000368 -1.999704 C 5.657172 -1.9995 7.000361 -0.65673 7.000158 1.000075 C 6.999954 2.65688 5.657184 4.000068 4.000379 3.999865 C 2.343574 3.999662 1.000386 2.656891 1.000589 1.000086 " transform="matrix(2.119297,-2.249507,2.249507,2.119297,12.047722,118.400882)"/><g clip-rule="nonzero" clip-path="url(#624aca4d02)"><path style="fill:none;stroke-width:2;stroke-linecap:butt;stroke-linejoin:miter;stroke:#e12e2e;stroke-opacity:1;stroke-miterlimit:4;" d="M 7.499377 1.000133 L 42.022907 0.999489 " transform="matrix(2.824816,1.25384,-1.25384,2.824816,96.186832,12.013977)"/></g><path style="fill:none;stroke-width:2;stroke-linecap:round;stroke-linejoin:round;stroke:#e12e2e;stroke-opacity:1;stroke-miterlimit:4;" d="M 1.000148 1.00033 C 1.000435 -0.656432 2.342664 -2.000314 3.999425 -2.000027 C 5.657342 -2.000253 7.000069 -0.657511 7.000295 1.000405 C 7.000008 2.657167 5.657267 3.999894 4.000505 3.999607 C 2.342588 3.999833 0.999861 2.657092 1.000148 1.00033 " transform="matrix(2.824816,1.25384,-1.25384,2.824816,96.186832,12.013977)"/><path style="fill:none;stroke-width:2;stroke-linecap:round;stroke-linejoin:round;stroke:#e12e2e;stroke-opacity:1;stroke-miterlimit:4;" d="M 48.52265 1.000448 C 48.523518 2.656696 47.179621 3.999936 45.522859 3.999649 C 43.866097 3.999362 42.52337 2.656621 42.522502 1.000372 C 42.522789 -0.65639 43.866686 -1.99963 45.522935 -2.000498 C 47.179697 -2.000211 48.522937 -0.656314 48.52265 1.000448 " transform="matrix(2.824816,1.25384,-1.25384,2.824816,96.186832,12.013977)"/><g clip-rule="nonzero" clip-path="url(#0cf723d0c0)"><path style="fill:none;stroke-width:2;stroke-linecap:butt;stroke-linejoin:miter;stroke:#e12e2e;stroke-opacity:1;stroke-miterlimit:4;" d="M 7.499845 1.000386 L 33.451533 1.000048 " transform="matrix(2.604019,-1.664568,1.664568,2.604019,211.848018,77.136787)"/></g><path style="fill:none;stroke-width:2;stroke-linecap:round;stroke-linejoin:round;stroke:#e12e2e;stroke-opacity:1;stroke-miterlimit:4;" d="M 0.99983 1.000616 C 1.000202 -0.65674 2.343502 -2.000187 3.999793 -2.000496 C 5.657149 -2.000124 7.000596 -0.656825 7.000224 1.000532 C 7.000533 2.656823 5.657233 4.00027 3.999877 3.999898 C 2.343586 4.000207 1.000139 2.656907 0.99983 1.000616 " transform="matrix(2.604019,-1.664568,1.664568,2.604019,211.848018,77.136787)"/><path style="fill:none;stroke-width:2;stroke-linecap:round;stroke-linejoin:round;stroke:#e12e2e;stroke-opacity:1;stroke-miterlimit:4;" d="M 39.951549 0.999819 C 39.951857 2.65611 38.608558 3.999557 36.952267 3.999866 C 35.29491 3.999494 33.952528 2.656875 33.952219 1.000584 C 33.952591 -0.656772 35.295891 -2.00022 36.952182 -2.000528 C 38.609538 -2.000156 39.951921 -0.657537 39.951549 0.999819 " transform="matrix(2.604019,-1.664568,1.664568,2.604019,211.848018,77.136787)"/><g style="fill:#06114a;fill-opacity:1;"><g transform="translate(0.0665734, 140.469735)"><path style="stroke:none" d="M 28.0625 1.1875 C 23.625 1.1875 19.640625 0.566406 16.109375 -0.671875 C 12.578125 -1.910156 9.597656 -3.597656 7.171875 -5.734375 C 4.753906 -7.878906 2.945312 -10.320312 1.75 -13.0625 L 8.84375 -21.921875 L 10.25 -21.921875 C 11.863281 -18.347656 14.15625 -15.523438 17.125 -13.453125 C 20.09375 -11.390625 23.585938 -10.359375 27.609375 -10.359375 C 32.296875 -10.359375 35.75 -11.632812 37.96875 -14.1875 C 40.1875 -16.75 41.296875 -21.035156 41.296875 -27.046875 L 41.296875 -82.359375 L 54.1875 -82.359375 L 54.1875 -26.8125 C 54.1875 -17.195312 52.023438 -10.125 47.703125 -5.59375 C 43.390625 -1.070312 36.84375 1.1875 28.0625 1.1875 Z M 28.0625 1.1875 "/></g></g><g clip-rule="nonzero" clip-path="url(#00f3718551)"><g transform="matrix(1,0,0,1,64,50)"><g id="09f21a4faf" clip-path="url(#24e8465e24)"><g style="fill:#06114a;fill-opacity:1;"><g transform="translate(0.966314, 82.953695)"><path style="stroke:none" d="M 0.75 -61.40625 L 0.75 -76.75 L 54.703125 -76.75 L 54.703125 -61.40625 L 36.46875 -61.40625 L 36.46875 0 L 18.984375 0 L 18.984375 -61.40625 Z M 0.75 -61.40625 "/></g></g><g style="fill:#06114a;fill-opacity:1;"><g transform="translate(50.367076, 82.953695)"><path style="stroke:none" d="M 5.578125 0 L 5.578125 -47.71875 L 22.046875 -47.71875 L 22.046875 -40.84375 L 22.234375 -40.84375 C 22.359375 -41.09375 22.554688 -41.398438 22.828125 -41.765625 C 23.109375 -42.140625 23.710938 -42.789062 24.640625 -43.71875 C 25.578125 -44.65625 26.570312 -45.492188 27.625 -46.234375 C 28.6875 -46.984375 30.050781 -47.648438 31.71875 -48.234375 C 33.394531 -48.828125 35.101562 -49.125 36.84375 -49.125 C 38.632812 -49.125 40.398438 -48.875 42.140625 -48.375 C 43.878906 -47.875 45.148438 -47.378906 45.953125 -46.890625 L 47.265625 -46.140625 L 40.375 -32.1875 C 38.332031 -33.925781 35.476562 -34.796875 31.8125 -34.796875 C 29.832031 -34.796875 28.128906 -34.359375 26.703125 -33.484375 C 25.273438 -32.617188 24.265625 -31.566406 23.671875 -30.328125 C 23.085938 -29.085938 22.671875 -28.03125 22.421875 -27.15625 C 22.171875 -26.289062 22.046875 -25.613281 22.046875 -25.125 L 22.046875 0 Z M 5.578125 0 "/></g></g><g style="fill:#06114a;fill-opacity:1;"><g transform="translate(95.953676, 82.953695)"><path style="stroke:none" d="M 8.828125 -5.90625 C 4.367188 -10.769531 2.140625 -16.738281 2.140625 -23.8125 C 2.140625 -30.882812 4.367188 -36.867188 8.828125 -41.765625 C 13.296875 -46.671875 18.972656 -49.125 25.859375 -49.125 C 32.191406 -49.125 37.398438 -47.140625 41.484375 -43.171875 L 41.484375 -47.71875 L 57.953125 -47.71875 L 57.953125 0 L 41.671875 0 L 41.671875 -5.390625 L 41.484375 -5.390625 C 37.398438 -0.867188 32.191406 1.390625 25.859375 1.390625 C 18.972656 1.390625 13.296875 -1.039062 8.828125 -5.90625 Z M 22.828125 -31.90625 C 20.691406 -29.800781 19.625 -27.101562 19.625 -23.8125 C 19.625 -20.53125 20.644531 -17.847656 22.6875 -15.765625 C 24.738281 -13.691406 27.441406 -12.65625 30.796875 -12.65625 C 34.015625 -12.65625 36.660156 -13.707031 38.734375 -15.8125 C 40.816406 -17.925781 41.859375 -20.59375 41.859375 -23.8125 C 41.859375 -27.101562 40.785156 -29.800781 38.640625 -31.90625 C 36.503906 -34.019531 33.890625 -35.078125 30.796875 -35.078125 C 27.628906 -35.078125 24.972656 -34.019531 22.828125 -31.90625 Z M 22.828125 -31.90625 "/></g></g><g style="fill:#06114a;fill-opacity:1;"><g transform="translate(159.495898, 82.953695)"><path style="stroke:none" d="M 30.984375 -35.625 C 27.878906 -35.625 25.207031 -34.476562 22.96875 -32.1875 C 20.738281 -29.894531 19.625 -27.132812 19.625 -23.90625 C 19.625 -20.625 20.738281 -17.832031 22.96875 -15.53125 C 25.207031 -13.238281 27.878906 -12.09375 30.984375 -12.09375 C 32.472656 -12.09375 33.882812 -12.273438 35.21875 -12.640625 C 36.550781 -13.015625 37.523438 -13.390625 38.140625 -13.765625 L 38.984375 -14.328125 L 44.5625 -2.890625 C 44.125 -2.578125 43.515625 -2.1875 42.734375 -1.71875 C 41.960938 -1.25 40.195312 -0.613281 37.4375 0.1875 C 34.6875 0.988281 31.726562 1.390625 28.5625 1.390625 C 21.550781 1.390625 15.394531 -1.070312 10.09375 -6 C 4.789062 -10.925781 2.140625 -16.832031 2.140625 -23.71875 C 2.140625 -30.664062 4.789062 -36.632812 10.09375 -41.625 C 15.394531 -46.625 21.550781 -49.125 28.5625 -49.125 C 31.726562 -49.125 34.644531 -48.75 37.3125 -48 C 39.976562 -47.257812 41.867188 -46.515625 42.984375 -45.765625 L 44.5625 -44.65625 L 38.984375 -33.390625 C 36.929688 -34.878906 34.265625 -35.625 30.984375 -35.625 Z M 30.984375 -35.625 "/></g></g><g style="fill:#06114a;fill-opacity:1;"><g transform="translate(205.175596, 82.953695)"><path style="stroke:none" d="M 60.09375 -47.71875 L 37.40625 -24.9375 L 62.328125 0 L 41.125 0 L 22.046875 -19.078125 L 22.046875 0 L 5.578125 0 L 5.578125 -80 L 22.046875 -80 L 22.046875 -31.078125 L 38.703125 -47.71875 Z M 60.09375 -47.71875 "/></g></g></g></g></g></g></g></g></svg>